<svg xmlns="http://www.w3.org/2000/svg" width="35.753" height="35.959" viewBox="0 0 35.753 35.959">
  <g id="design" transform="translate(-1.6 -1.52)">
    <path id="XMLID_345_" d="M12.761,19.413,2.278,9.148a1.056,1.056,0,0,1,0-1.529L7.519,2.378a1.056,1.056,0,0,1,1.529,0L19.313,12.642" transform="translate(0 0.059)" fill="none" stroke="#000" stroke-width="0.7"/>
    <path id="XMLID_342_" d="M16.552,10,27.035,20.483a1.056,1.056,0,0,1,0,1.529l-5.242,5.242a1.056,1.056,0,0,1-1.529,0L10,16.77" transform="translate(9.531 9.472)" fill="none" stroke="#000" stroke-width="0.7"/>
    <rect id="XMLID_380_" width="3.058" height="6.334" transform="matrix(-0.707, -0.707, 0.707, -0.707, 28.392, 35.333)"/>
    <rect id="XMLID_378_" width="3.058" height="3.276" transform="matrix(-0.707, -0.707, 0.707, -0.707, 23.899, 30.746)"/>
    <rect id="XMLID_375_" width="3.058" height="6.334" transform="matrix(-0.707, -0.707, 0.707, -0.707, 10.525, 17.216)"/>
    <rect id="XMLID_374_" width="3.058" height="3.276" transform="matrix(-0.707, -0.707, 0.707, -0.707, 6.031, 12.941)"/>
    <path id="XMLID_341_" d="M14,3.966l1.31-1.31a2.111,2.111,0,0,1,3.058,0l3.713,3.713a2.111,2.111,0,0,1,0,3.058l-1.31,1.31" transform="translate(14.267 0)" fill="none" stroke="#000" stroke-linecap="round" stroke-linejoin="round" stroke-width="0.7"/>
    <rect id="XMLID_371_" width="9.391" height="29.484" transform="matrix(0.707, 0.707, -0.707, 0.707, 26.557, 5.902)" fill="none" stroke="#000" stroke-linecap="round" stroke-linejoin="round" stroke-width="0.7"/>
    <rect id="XMLID_370_" width="30.139" height="3.058" transform="matrix(0.707, -0.707, 0.707, 0.707, 7.343, 29.392)"/>
    <path id="XMLID_369_" d="M2.1,23.346,5.376,13.3l6.77,6.77Z" transform="translate(0.178 13.379)" fill="none" stroke="#000" stroke-linecap="round" stroke-linejoin="round" stroke-width="0.7"/>
    <path id="XMLID_368_" d="M3.192,16.4,2.1,19.676l3.276-1.092Z" transform="translate(0.178 17.049)"/>
    <path id="XMLID_340_" d="M22.273,9.47l-2.621,2.4L13.1,5.321,15.5,2.7" transform="translate(13.201 0.829)" fill="none" stroke="#000" stroke-linecap="round" stroke-linejoin="round" stroke-width="0.7"/>
  </g>
</svg>
